<svg xmlns="http://www.w3.org/2000/svg" xmlns:xlink="http://www.w3.org/1999/xlink" width="500" zoomAndPan="magnify" viewBox="0 0 375 374.999991" height="500" preserveAspectRatio="xMidYMid meet" version="1.0"><defs><g/><clipPath id="a68cbefe0d"><rect x="0" width="174" y="0" height="157"/></clipPath></defs><rect x="-37.5" width="450" fill="#ffffff" y="-37.499999" height="449.999989" fill-opacity="1"/><rect x="-37.5" width="450" fill="#ffffff" y="-37.499999" height="449.999989" fill-opacity="1"/><g transform="matrix(1, 0, 0, 1, 101, 100)"><g clip-path="url(#a68cbefe0d)"><g fill="#003554" fill-opacity="1"><g transform="translate(0.470706, 115.249723)"><g><path d="M 62.796875 -50.1875 L 58.859375 -39.484375 L 56.953125 -37.84375 C 52.378906 -37.414062 46.738281 -36.625 40.03125 -35.46875 C 42.78125 -35.21875 45.539062 -34.800781 48.3125 -34.21875 C 51.082031 -33.644531 53.378906 -33.054688 55.203125 -32.453125 C 54.296875 -26.109375 53.304688 -21.210938 52.234375 -17.765625 C 51.171875 -14.328125 49.816406 -11.664062 48.171875 -9.78125 C 45.429688 -6.613281 41.441406 -3.960938 36.203125 -1.828125 C 30.960938 0.304688 25.597656 1.375 20.109375 1.375 C 15.421875 1.375 11.367188 0.078125 7.953125 -2.515625 C 4.535156 -5.109375 2.644531 -8.6875 2.28125 -13.25 C 4.351562 -18.976562 6.941406 -24.296875 10.046875 -29.203125 C 13.160156 -34.109375 17.15625 -38.816406 22.03125 -43.328125 L 23.953125 -34.734375 C 20.660156 -32.171875 17.976562 -29.789062 15.90625 -27.59375 C 13.832031 -25.40625 11.972656 -23.03125 10.328125 -20.46875 C 11.910156 -18.03125 13.9375 -16.1875 16.40625 -14.9375 C 18.875 -13.695312 22 -13.078125 25.78125 -13.078125 C 30.53125 -13.078125 34.960938 -13.851562 39.078125 -15.40625 C 43.191406 -16.957031 46.554688 -18.984375 49.171875 -21.484375 C 46.671875 -22.273438 43.257812 -23.003906 38.9375 -23.671875 C 34.613281 -24.347656 30.804688 -24.742188 27.515625 -24.859375 C 30.015625 -33.023438 32.96875 -39.878906 36.375 -45.421875 C 39.664062 -46.953125 43.566406 -48.25 48.078125 -49.3125 C 52.585938 -50.375 57.3125 -51.179688 62.25 -51.734375 Z M 17.453125 10.421875 L 34 5.953125 L 32.171875 15.359375 L 15.90625 18.921875 Z M 17.453125 10.421875 "/></g></g></g><g fill="#003554" fill-opacity="1"><g transform="translate(60.710527, 65.247952)"><g><path d="M 15.359375 -62.0625 C 16.390625 -61.03125 17.179688 -59.859375 17.734375 -58.546875 C 18.285156 -57.234375 18.5625 -55.847656 18.5625 -54.390625 C 18.5625 -52.191406 17.992188 -50.300781 16.859375 -48.71875 C 15.734375 -47.132812 14.347656 -46.34375 12.703125 -46.34375 C 10.992188 -46.34375 9.773438 -47.164062 9.046875 -48.8125 C 8.554688 -47.40625 7.898438 -46.273438 7.078125 -45.421875 C 6.253906 -44.578125 5.328125 -44.15625 4.296875 -44.15625 C 3.316406 -44.15625 2.507812 -44.59375 1.875 -45.46875 C 1.238281 -46.351562 0.921875 -47.53125 0.921875 -49 C 0.921875 -51.070312 1.710938 -53.328125 3.296875 -55.765625 L 4.203125 -55.296875 C 4.023438 -54.691406 3.9375 -54.050781 3.9375 -53.375 C 3.9375 -52.46875 4.117188 -51.738281 4.484375 -51.1875 C 4.847656 -50.632812 5.332031 -50.359375 5.9375 -50.359375 C 7.582031 -50.359375 8.742188 -52.34375 9.421875 -56.3125 L 10.515625 -56.3125 C 10.578125 -53.8125 11.582031 -52.5625 13.53125 -52.5625 C 14.070312 -52.5625 14.617188 -52.726562 15.171875 -53.0625 C 15.722656 -53.394531 16.117188 -53.773438 16.359375 -54.203125 C 15.753906 -55.484375 14.566406 -56.765625 12.796875 -58.046875 Z M 15.359375 -62.0625 "/></g></g></g><g fill="#003554" fill-opacity="1"><g transform="translate(57.419724, 79.325245)"><g><path d="M 29.4375 -12.984375 L 25.5 -2.28125 L 23.578125 -0.640625 L 14.8125 0.28125 C 14.925781 -2.28125 14.984375 -6.179688 14.984375 -11.421875 C 14.984375 -12.890625 14.957031 -13.988281 14.90625 -14.71875 C 13.863281 -10.875 12.613281 -7.367188 11.15625 -4.203125 C 7.863281 -3.109375 4.144531 -2.347656 0 -1.921875 L 5.296875 -15.8125 C 8.773438 -16.113281 11.914062 -16.691406 14.71875 -17.546875 C 14.351562 -21.753906 13.664062 -25.925781 12.65625 -30.0625 C 11.65625 -34.207031 10.515625 -37.804688 9.234375 -40.859375 C 10.691406 -43.421875 12.394531 -45.890625 14.34375 -48.265625 C 16.300781 -50.640625 18.128906 -52.5 19.828125 -53.84375 C 20.441406 -52.375 21.035156 -49.21875 21.609375 -44.375 C 22.191406 -39.53125 22.484375 -35.21875 22.484375 -31.4375 C 22.484375 -27.84375 22.390625 -24.414062 22.203125 -21.15625 C 22.023438 -17.894531 21.816406 -15.441406 21.578125 -13.796875 L 28.890625 -14.53125 Z M 29.4375 -12.984375 "/></g></g></g><g fill="#003554" fill-opacity="1"><g transform="translate(112.540532, 69.544296)"><g><path d="M 15.640625 -61.421875 C 16.671875 -60.390625 17.460938 -59.21875 18.015625 -57.90625 C 18.566406 -56.59375 18.84375 -55.207031 18.84375 -53.75 C 18.84375 -51.550781 18.273438 -49.660156 17.140625 -48.078125 C 16.015625 -46.492188 14.628906 -45.703125 12.984375 -45.703125 C 11.273438 -45.703125 10.054688 -46.523438 9.328125 -48.171875 C 8.835938 -46.765625 8.179688 -45.632812 7.359375 -44.78125 C 6.535156 -43.9375 5.609375 -43.515625 4.578125 -43.515625 C 3.597656 -43.515625 2.789062 -43.953125 2.15625 -44.828125 C 1.519531 -45.710938 1.203125 -46.890625 1.203125 -48.359375 C 1.203125 -50.429688 1.992188 -52.6875 3.578125 -55.125 L 4.484375 -54.65625 C 4.304688 -54.050781 4.21875 -53.410156 4.21875 -52.734375 C 4.21875 -51.828125 4.398438 -51.097656 4.765625 -50.546875 C 5.128906 -49.992188 5.613281 -49.71875 6.21875 -49.71875 C 7.863281 -49.71875 9.023438 -51.703125 9.703125 -55.671875 L 10.796875 -55.671875 C 10.859375 -53.171875 11.863281 -51.921875 13.8125 -51.921875 C 14.351562 -51.921875 14.898438 -52.085938 15.453125 -52.421875 C 16.003906 -52.753906 16.398438 -53.132812 16.640625 -53.5625 C 16.035156 -54.84375 14.847656 -56.125 13.078125 -57.40625 Z M 0.921875 -37.65625 L 19.109375 -45.0625 L 19.375 -41.859375 L 1.46875 -35.46875 Z M 0.921875 -37.65625 "/></g></g></g><g fill="#003554" fill-opacity="1"><g transform="translate(81.003759, 77.314214)"><g><path d="M 41.953125 -35.734375 C 44.515625 -35.734375 46.421875 -34.941406 47.671875 -33.359375 C 48.921875 -31.773438 49.546875 -29.28125 49.546875 -25.875 C 49.546875 -22.757812 48.921875 -19.359375 47.671875 -15.671875 C 46.421875 -11.984375 44.972656 -9.378906 43.328125 -7.859375 C 40.097656 -4.816406 32.9375 -2.410156 21.84375 -0.640625 L 20.390625 4.203125 L 17.453125 3.75 L 18.5625 -0.1875 C 15.570312 0.238281 12.859375 0.578125 10.421875 0.828125 L 7.765625 1.09375 L 8.6875 -1.375 C 6.488281 0.03125 3.59375 0.945312 0 1.375 L 5.296875 -12.515625 C 8.648438 -12.890625 11.457031 -13.65625 13.71875 -14.8125 L 15.359375 -19.203125 L 18.28125 -18.734375 L 16.734375 -13.15625 L 17.375 -13.25 C 19.625 -13.5 21.390625 -13.710938 22.671875 -13.890625 C 24.253906 -19.015625 25.578125 -22.734375 26.640625 -25.046875 C 27.710938 -27.359375 28.859375 -29.25 30.078125 -30.71875 C 31.410156 -32.238281 33.160156 -33.453125 35.328125 -34.359375 C 37.492188 -35.273438 39.703125 -35.734375 41.953125 -35.734375 Z M 26.046875 -14.34375 C 31.835938 -15.195312 36.484375 -16.1875 39.984375 -17.3125 C 43.492188 -18.445312 45.25 -19.472656 45.25 -20.390625 C 45.25 -20.867188 44.789062 -21.242188 43.875 -21.515625 C 42.957031 -21.796875 41.738281 -21.9375 40.21875 -21.9375 C 37.84375 -21.9375 35.421875 -21.570312 32.953125 -20.84375 C 30.484375 -20.113281 28.640625 -19.226562 27.421875 -18.1875 Z M 26.046875 -14.34375 "/></g></g></g><g fill="#003554" fill-opacity="1"><g transform="translate(148.922063, 110.679172)"><g><path d="M 0.921875 -43.140625 L 19.109375 -50.546875 L 19.375 -47.34375 L 1.46875 -40.953125 Z M 0.921875 -43.140625 "/></g></g></g><g fill="#003554" fill-opacity="1"><g transform="translate(133.930666, 115.249722)"><g><path d="M 35.828125 -26.78125 C 35.828125 -22.09375 34.957031 -17.582031 33.21875 -13.25 C 31.488281 -8.925781 29.035156 -5.40625 25.859375 -2.6875 C 22.691406 0.0195312 19.128906 1.375 15.171875 1.375 C 12.429688 1.375 9.265625 0.6875 5.671875 -0.6875 C 2.078125 -2.0625 -0.570312 -3.566406 -2.28125 -5.203125 C 2.53125 -6.609375 7.90625 -8.390625 13.84375 -10.546875 C 19.789062 -12.710938 24.679688 -14.679688 28.515625 -16.453125 L 27.96875 -19.65625 L 23.671875 -19.65625 C 21.359375 -19.65625 19.5 -20.003906 18.09375 -20.703125 C 16.695312 -21.398438 16 -22.390625 16 -23.671875 C 16 -25.191406 16.820312 -27.234375 18.46875 -29.796875 C 20.113281 -32.359375 22.0625 -34.628906 24.3125 -36.609375 C 26.570312 -38.585938 28.523438 -39.578125 30.171875 -39.578125 C 31.804688 -39.578125 33.15625 -38.390625 34.21875 -36.015625 C 35.289062 -33.640625 35.828125 -30.5625 35.828125 -26.78125 Z M 35.828125 -26.78125 "/></g></g></g></g></g></svg>